<?xml version="1.0" encoding="iso-8859-1"?>
<!-- Generator: Adobe Illustrator 19.0.0, SVG Export Plug-In . SVG Version: 6.00 Build 0)  -->
<svg version="1.1" id="Capa_1" xmlns="http://www.w3.org/2000/svg" xmlns:xlink="http://www.w3.org/1999/xlink" x="0px" y="0px"
	 viewBox="0 0 512 512" style="enable-background:new 0 0 512 512;" xml:space="preserve">
<g>
	<g>
		<g>
			<path d="M288,416v32h160v-90.704L319.2,304.08l0.688-27.056L352,228.8V160c0-53.019-42.981-96-96-96s-96,42.981-96,96v68.8
				l32.112,48.176l0.688,27.056L64,357.296V448h64v-32H96v-37.296l129.344-53.456l-1.472-58.272L192,219.2V160
				c0-35.346,28.654-64,64-64c35.346,0,64,28.654,64,64v59.2l-31.872,47.824l-1.472,58.272L416,378.704V416H288z"/>
			<rect x="160" y="416" width="32" height="32"/>
			<rect x="224" y="416" width="32" height="32"/>
			<rect x="224" y="192" width="32" height="32"/>
			<polygon points="32,32 160,32 160,0 0,0 0,160 32,160 			"/>
			<polygon points="32,368 0,368 0,512 144,512 144,480 32,480 			"/>
			<polygon points="352,0 352,32 480,32 480,160 512,160 512,0 			"/>
			<polygon points="480,480 352,480 352,512 512,512 512,352 480,352 			"/>
		</g>
	</g>
</g>
<g>
</g>
<g>
</g>
<g>
</g>
<g>
</g>
<g>
</g>
<g>
</g>
<g>
</g>
<g>
</g>
<g>
</g>
<g>
</g>
<g>
</g>
<g>
</g>
<g>
</g>
<g>
</g>
<g>
</g>
</svg>
